Patient4_TMGait_0pt2_01_left_15_GRF.mot
version=1
nRows=65
nColumns=19
inDegrees=no
endheader
time	F1x	F1y	F1z	M1x	M1y	M1z	F2x	F2y	F2z	M2x	M2y	M2z	EC1x	EC1y	EC1z	EC2x	EC2y	EC2z
34.18	4.0572	80.8322	7.2871	-27.2133	-4.3987	64.4691	-14.968	654.6615	-36.4017	247.6582	41.1898	602.8626	-0.0592	0.0182	-0.0073	-0.0462	0.0165	0.9585
34.2042	2.4942	69.0642	6.4868	-23.197	-4.3016	55.1996	-14.7619	673.9377	-37.8052	254.8216	42.7649	621.2047	-0.0592	0.0182	-0.0073	-0.0462	0.0165	0.9585
34.2284	0.81146	55.9723	5.5586	-18.755	-4.1467	44.8373	-15.0355	697.5678	-39.226	263.7608	44.417	643.1747	-0.0592	0.0182	-0.0073	-0.0462	0.0165	0.9585
34.2526	-0.72387	42.6319	4.5516	-14.2509	-3.8816	34.2425	-15.807	724.9948	-40.4914	274.2755	45.9479	668.1638	-0.0592	0.0182	-0.0073	-0.0462	0.0165	0.9585
34.2769	-1.8215	30.0767	3.5147	-10.0285	-3.4438	24.2468	-16.9589	755.4645	-41.4538	286.0604	47.1572	695.4269	-0.0592	0.0182	-0.0073	-0.0462	0.0165	0.9585
34.3011	-2.2956	19.1697	2.5055	-6.3719	-2.8153	15.5437	-18.2467	787.7025	-42.0278	298.5922	47.875	723.7649	-0.0592	0.0182	-0.0073	-0.0462	0.0165	0.9585
34.3253	-2.247	10.5168	1.6118	-3.4776	-2.1006	8.622	-19.3688	819.5134	-42.2187	310.9854	48.0055	751.1807	-0.0592	0.0182	-0.0073	-0.0462	0.0165	0.9585
34.3495	-1.9255	4.2696	0.90787	-1.3913	-1.4442	3.614	-20.0745	847.7705	-42.1192	321.9992	47.5615	774.8987	-0.0592	0.0182	-0.0073	-0.0462	0.0165	0.9585
34.3737	-1.5134	0.15889	0.40894	-0.021044	-0.92086	0.30425	-20.2191	869.0832	-41.8382	330.3011	46.6199	791.9611	-0.0592	0.0182	-0.0073	-0.0462	0.0165	0.9585
34.3979	-1.1213	-2.2874	0.095296	0.7924	-0.55083	-1.6925	-19.7516	880.7157	-41.4303	334.8265	45.2513	800.0189	-0.0592	0.0182	-0.0073	-0.0462	0.0165	0.9585
34.4221	-0.80729	-3.59	-0.07157	1.2255	-0.31976	-2.7954	-18.6834	881.3873	-40.8728	335.0869	43.4893	798.0199	-0.0592	0.0182	-0.0073	-0.0462	0.0165	0.9585
34.4464	-0.59346	-4.2293	-0.13711	1.4407	-0.19694	-3.3914	-17.0503	871.648	-40.0975	331.3117	41.3418	786.5107	-0.0592	0.0182	-0.0073	-0.0462	0.0165	0.9585
34.4706	-0.47628	-4.5943	-0.14669	1.5685	-0.14339	-3.799	-14.8925	853.6764	-39.0347	324.3629	38.8173	767.4438	-0.0592	0.0182	-0.0073	-0.0462	0.0165	0.9585
34.4948	-0.43414	-4.9522	-0.14277	1.6972	-0.118	-4.236	-12.2627	830.6392	-37.6498	315.4816	35.9502	743.6294	-0.0592	0.0182	-0.0073	-0.0462	0.0165	0.9585
34.519	-0.42763	-5.4307	-0.15972	1.8671	-0.080835	-4.803	-9.2424	805.8777	-35.9694	305.9699	32.8184	718.0281	-0.0592	0.0182	-0.0073	-0.0462	0.0165	0.9585
34.5432	-0.40525	-6.0076	-0.22107	2.0663	0.0049901	-5.4699	-5.9271	782.2644	-34.0906	296.9379	29.5474	693.1932	-0.0592	0.0182	-0.0073	-0.0462	0.0165	0.9585
34.5674	-0.3048	-6.4884	-0.33861	2.2241	0.17188	-6.0535	-2.405	761.8569	-32.1693	289.1715	26.296	670.9774	-0.0592	0.0182	-0.0073	-0.0462	0.0165	0.9585
34.5916	-0.054828	-6.488	-0.50904	2.203	0.44204	-6.1903	1.242	745.7852	-30.3894	283.0939	23.2364	652.4464	-0.0592	0.0182	-0.0073	-0.0462	0.0165	0.9585
34.6159	0.42248	-5.4187	-0.71399	1.7964	0.82492	-5.3238	4.9293	734.2833	-28.9338	278.7789	20.5357	637.903	-0.0592	0.0182	-0.0073	-0.0462	0.0165	0.9585
34.6401	1.201	-2.4992	-0.91326	0.73023	1.308	-2.7061	8.5538	726.814	-27.9547	276.0021	18.3409	626.9856	-0.0592	0.0182	-0.0073	-0.0462	0.0165	0.9585
34.6643	2.3292	3.2048	-1.0366	-1.3223	1.8421	2.5725	11.9992	722.227	-27.5417	274.303	16.7523	618.7891	-0.0592	0.0182	-0.0073	-0.0462	0.0165	0.9585
34.6885	3.8058	12.6737	-0.97314	-4.7004	2.3192	11.4838	15.1728	718.9236	-27.686	273.0509	15.7762	612.0011	-0.0592	0.0182	-0.0073	-0.0462	0.0165	0.9585
34.7127	5.5249	26.7305	-0.56916	-9.6829	2.5486	24.8635	18.0085	715.0559	-28.2646	271.5215	15.3137	605.0853	-0.0592	0.0182	-0.0073	-0.0462	0.0165	0.9585
34.7369	7.1346	45.7745	0.35231	-16.3934	2.2245	43.1657	20.4229	708.79	-29.0787	268.9981	15.2126	596.5298	-0.0592	0.0182	-0.0073	-0.0462	0.0165	0.9585
34.7611	8.0037	69.5797	1.956	-24.731	0.95171	66.2836	22.303	698.6481	-29.8929	264.9023	15.3033	585.1524	-0.0592	0.0182	-0.0073	-0.0462	0.0165	0.9585
34.7854	7.677	97.4373	4.311	-34.425	-1.5072	93.6614	23.5391	683.7695	-30.4998	258.8978	15.4427	570.3075	-0.0592	0.0182	-0.0073	-0.0462	0.0165	0.9585
34.8096	5.9874	128.2963	7.3118	-45.0933	-5.1133	124.3694	24.0362	663.9301	-30.7663	250.9066	15.5513	551.8773	-0.0592	0.0182	-0.0073	-0.0462	0.0165	0.9585
34.8338	2.9853	160.8761	10.6635	-56.2939	-9.5543	157.1959	23.7211	639.4745	-30.6123	241.0943	15.5979	530.1885	-0.0592	0.0182	-0.0073	-0.0462	0.0165	0.9585
34.858	-1.0549	193.7826	13.9577	-67.5707	-14.3227	190.7327	22.6042	611.1921	-30.0026	229.822	15.5667	505.8727	-0.0592	0.0182	-0.0073	-0.0462	0.0165	0.9585
34.8822	-5.6596	225.7526	16.8596	-78.5204	-18.9147	223.6071	20.8566	580.1757	-28.9735	217.5727	15.4387	479.7282	-0.0592	0.0182	-0.0073	-0.0462	0.0165	0.9585
34.9064	-10.2975	255.9175	19.227	-88.865	-22.9975	254.7986	18.7786	547.7282	-27.6439	204.8921	15.204	452.6629	-0.0592	0.0182	-0.0073	-0.0462	0.0165	0.9585
34.9306	-14.5176	283.9134	21.1009	-98.4818	-26.4514	283.8005	16.6728	515.1974	-26.1791	192.3127	14.8802	425.6201	-0.0592	0.0182	-0.0073	-0.0462	0.0165	0.9585
34.9549	-18.02	309.8366	22.6009	-107.3936	-29.2913	310.6037	14.7444	483.7871	-24.7294	180.283	14.5059	399.4696	-0.0592	0.0182	-0.0073	-0.0462	0.0165	0.9585
34.9791	-20.6722	333.9941	23.8273	-115.6891	-31.5703	335.4582	13.0987	454.4345	-23.4006	169.1318	14.1192	374.9128	-0.0592	0.0182	-0.0073	-0.0462	0.0165	0.9585
35.0033	-22.4822	356.6499	24.8473	-123.4392	-33.3557	358.6075	11.7694	427.7403	-22.2539	159.052	13.7498	352.416	-0.0592	0.0182	-0.0073	-0.0462	0.0165	0.9585
35.0275	-23.549	377.9882	25.7327	-130.6845	-34.7463	380.2306	10.7468	403.9147	-21.3135	150.0923	13.4166	332.1589	-0.0592	0.0182	-0.0073	-0.0462	0.0165	0.9585
35.0517	-24.011	398.1662	26.5791	-137.4564	-35.8765	400.4798	10.0097	382.7536	-20.5689	142.157	13.1187	313.9981	-0.0592	0.0182	-0.0073	-0.0462	0.0165	0.9585
35.0759	-23.9753	417.2953	27.4614	-143.7834	-36.8514	419.4511	9.5371	363.7458	-19.9782	135.0491	12.8342	297.5458	-0.0592	0.0182	-0.0073	-0.0462	0.0165	0.9585
35.1001	-23.5003	435.33	28.3942	-149.66	-37.702	437.0904	9.2973	346.3163	-19.4795	128.5563	12.5326	282.3685	-0.0592	0.0182	-0.0073	-0.0462	0.0165	0.9585
35.1244	-22.6412	451.9716	29.3229	-155.0091	-38.394	453.1258	9.2424	330.0331	-19.0069	122.5197	12.1865	268.1502	-0.0592	0.0182	-0.0073	-0.0462	0.0165	0.9585
35.1486	-21.4788	466.7082	30.1345	-159.6875	-38.8436	467.1154	9.3289	314.6766	-18.5118	116.8542	11.78	254.7416	-0.0592	0.0182	-0.0073	-0.0462	0.0165	0.9585
35.1728	-20.1145	479.0449	30.7081	-163.5526	-38.9638	478.6542	9.5306	300.2066	-17.9855	111.5347	11.3191	242.1304	-0.0592	0.0182	-0.0073	-0.0462	0.0165	0.9585
35.197	-18.6815	488.7659	30.9858	-166.5461	-38.7363	487.6086	9.8302	286.6619	-17.4581	106.5629	10.8319	230.3613	-0.0592	0.0182	-0.0073	-0.0462	0.0165	0.9585
35.2212	-17.3304	496.0785	30.9972	-168.745	-38.2313	494.2329	10.2181	274.0188	-16.9707	101.9179	10.3463	219.4197	-0.0592	0.0182	-0.0073	-0.0462	0.0165	0.9585
35.2454	-16.1935	501.6531	30.845	-170.3826	-37.5832	499.1863	10.7052	262.0844	-16.5465	97.5198	9.8676	209.1529	-0.0592	0.0182	-0.0073	-0.0462	0.0165	0.9585
35.2696	-15.3528	506.5834	30.6733	-171.8397	-36.9531	503.4826	11.3116	250.5095	-16.1877	93.2343	9.3847	199.2808	-0.0592	0.0182	-0.0073	-0.0462	0.0165	0.9585
35.2939	-14.8348	512.2657	30.6386	-173.6039	-36.4961	508.3835	12.0241	238.937	-15.8848	88.9278	8.8926	189.5184	-0.0592	0.0182	-0.0073	-0.0462	0.0165	0.9585
35.3181	-14.6163	520.1996	30.892	-176.2011	-36.3451	515.2191	12.7895	227.0878	-15.6272	84.4996	8.4011	179.6442	-0.0592	0.0182	-0.0073	-0.0462	0.0165	0.9585
35.3423	-14.6293	531.8069	31.5526	-180.1309	-36.589	525.2327	13.5252	214.7738	-15.4013	79.8842	7.9298	169.5075	-0.0592	0.0182	-0.0073	-0.0462	0.0165	0.9585
35.3665	-14.7827	548.2471	32.6896	-185.798	-37.267	539.4335	14.1177	201.853	-15.1873	75.0341	7.5054	158.993	-0.0592	0.0182	-0.0073	-0.0462	0.0165	0.9585
35.3907	-14.9975	570.2073	34.3232	-193.4316	-38.3768	558.4163	14.4172	188.119	-14.9542	69.879	7.1567	147.9385	-0.0592	0.0182	-0.0073	-0.0462	0.0165	0.9585
35.4149	-15.2442	597.7402	36.4343	-203.0307	-39.8924	582.2148	14.2502	173.2103	-14.6428	64.2906	6.9008	136.057	-0.0592	0.0182	-0.0073	-0.0462	0.0165	0.9585
35.4391	-15.541	630.2703	38.9651	-214.3705	-41.769	610.2936	13.457	156.6788	-14.1617	58.1069	6.7286	122.9857	-0.0592	0.0182	-0.0073	-0.0462	0.0165	0.9585
35.4634	-15.8963	666.6881	41.8195	-227.044	-43.9308	641.6183	11.9402	138.2425	-13.4158	51.2276	6.6066	108.4896	-0.0592	0.0182	-0.0073	-0.0462	0.0165	0.9585
35.4876	-16.2331	705.326	44.8636	-240.4619	-46.244	674.6164	9.7277	118.0634	-12.3448	43.7168	6.4804	92.6817	-0.0592	0.0182	-0.0073	-0.0462	0.0165	0.9585
35.5118	-16.3997	743.8103	47.9441	-253.8021	-48.5345	707.0553	7.0203	96.8381	-10.9393	35.836	6.2752	76.0859	-0.0592	0.0182	-0.0073	-0.0462	0.0165	0.9585
35.536	-16.2429	779.073	50.9147	-266.0105	-50.6359	736.0855	4.173	75.6772	-9.2411	27.9979	5.903	59.5532	-0.0592	0.0182	-0.0073	-0.0462	0.0165	0.9585
35.5602	-15.6465	807.761	53.6296	-275.944	-52.3944	758.649	1.6028	55.842	-7.3432	20.6675	5.2894	44.063	-0.0592	0.0182	-0.0073	-0.0462	0.0165	0.9585
35.5844	-14.5374	827.027	55.9134	-282.6435	-53.6388	772.1976	-0.32789	38.4601	-5.3851	14.2579	4.408	30.4875	-0.0592	0.0182	-0.0073	-0.0462	0.0165	0.9585
35.6086	-12.8657	835.3286	57.5673	-285.6059	-54.1757	775.389	-1.4401	24.3108	-3.5385	9.0514	3.3223	19.4156	-0.0592	0.0182	-0.0073	-0.0462	0.0165	0.9585
35.6329	-10.5857	832.8575	58.4173	-284.9273	-53.8244	768.4446	-1.8619	13.6895	-1.9691	5.1519	2.2047	11.0627	-0.0592	0.0182	-0.0073	-0.0462	0.0165	0.9585
35.6571	-7.6541	821.5115	58.3694	-281.2842	-52.4697	753.0975	-1.838	6.3098	-0.7566	2.4505	1.2051	5.1972	-0.0592	0.0182	-0.0073	-0.0462	0.0165	0.9585
35.6813	-4.0482	804.4088	57.4432	-275.761	-50.0991	732.1574	-1.5586	1.4956	0.1096	0.69598	0.38412	1.2744	-0.0592	0.0182	-0.0073	-0.0462	0.0165	0.9585
35.7055	0.20001	785.117	55.7702	-269.5839	-46.8202	708.8313	-1.1549	-1.5446	0.6834	-0.40565	-0.25415	-1.344	-0.0592	0.0182	-0.0073	-0.0462	0.0165	0.9585
35.7297	4.9981	766.9399	53.5713	-263.8752	-42.8419	686.0811	-0.70351	-3.5396	1.0302	-1.1267	-0.73428	-3.2327	-0.0592	0.0182	-0.0073	-0.0462	0.0165	0.9585
